<svg xmlns="http://www.w3.org/2000/svg" width="255.83" height="68.574" viewBox="0 0 255.83 68.574">
  <g id="Group_208" data-name="Group 208" transform="translate(-143.062 -48.708)">
    <text id="Play" transform="translate(235.81 96.244)" fill="#fff" font-size="33" font-family="Roboto-Black, Roboto" font-weight="800"><tspan x="0" y="0">Play</tspan></text>
    <text id="casino" transform="translate(302.892 96.183)" fill="#fff" font-size="33" font-family="Roboto-Light, Roboto" font-weight="300"><tspan x="0" y="0">casino</tspan></text>
    <g id="Group_76" data-name="Group 76" transform="translate(143.062 48.708)">
      <path id="Path_16" data-name="Path 16" d="M206.145,69.905a3.8,3.8,0,0,0-.539-.469q-14.272-8.245-28.553-16.477c-.556-.32-.7-.279-1.025.279q-12.219,21.149-24.441,42.3c-.322.556-.286.691.284,1.02q2.61,1.509,5.223,3.013L180.389,113c.589.34.727.3,1.062-.275q1.042-1.8,2.078-3.606L205.82,70.55C205.923,70.372,206.005,70.184,206.145,69.905Zm-29.557-21.2a4.675,4.675,0,0,1,2.453.707q10.857,6.271,21.721,12.534,3.462,2,6.925,3.991a4.507,4.507,0,0,1,1.735,6.492q-12.245,21.2-24.492,42.393a4.54,4.54,0,0,1-4.145,2.457,4.315,4.315,0,0,1-2.185-.621q-14.488-8.36-28.976-16.719a4.507,4.507,0,0,1-1.577-6.395q9.456-16.369,18.918-32.736,2.812-4.868,5.626-9.737A4.462,4.462,0,0,1,176.588,48.708Z" transform="translate(-140.025 -48.708)" fill="#fca120"/>
      <path id="Path_17" data-name="Path 17" d="M171.2,50.737c-.78,1.357-1.505,2.629-2.255,3.887-.063.106-.3.154-.45.156-.99.014-1.981.007-2.971.007H147.982c-.765,0-.849.086-.849.852V92.882q0,5.727,0,11.455c0,.674.109.785.766.785,3.084,0,6.167-.005,9.251.01a1.7,1.7,0,0,1,.8.216c2,1.132,3.984,2.285,5.974,3.433.161.094.316.2.587.364-.284.012-.448.027-.612.027-5.336,0-10.673-.051-16.009.022a4.719,4.719,0,0,1-4.833-4.846c.053-11.5.022-23.007.022-34.51,0-4.793.031-9.587-.014-14.38a4.583,4.583,0,0,1,3.74-4.65,5.889,5.889,0,0,1,.951-.068q11.5-.005,23.007,0Z" transform="translate(-143.062 -47.265)" fill="#fca120"/>
      <path id="Path_18" data-name="Path 18" d="M180.068,72.148a7.032,7.032,0,1,1-9.535,10.261c.1,1.105.164,2.1.293,3.084.1.772.274,1.536.436,2.3a.83.83,0,0,1-.287.939.84.84,0,0,1-.985-.007q-5.656-3.264-11.315-6.521a.781.781,0,0,1-.445-.828.862.862,0,0,1,.643-.691c1.444-.546,2.877-1.115,4.313-1.682.161-.063.31-.156.568-.287a6.958,6.958,0,0,1-4.526-3.765,6.834,6.834,0,0,1-.092-5.833,7.025,7.025,0,0,1,8.757-3.748,6.972,6.972,0,0,1,5.124-4.166,6.8,6.8,0,0,1,4.97.876A7.039,7.039,0,0,1,180.068,72.148Z" transform="translate(-132.29 -39.931)" fill="#fca120"/>
    </g>
  </g>
</svg>
