<svg xmlns="http://www.w3.org/2000/svg" width="98.193" height="56.044" viewBox="0 0 98.193 56.044">
  <g id="Group_959" data-name="Group 959" transform="translate(1343.455 -90.911)">
    <path id="Path_7139" data-name="Path 7139" d="M-1246.431,137.4l1.168-24.445-9.978.3,1.744-22.344h-14.519l.144,4.009-.094-.008c-1.57-.129-3.053-.25-4.537-.4a4.148,4.148,0,0,0-4.384,2.461l-.131.276-.584-2.664-4.908-.217-.893-.04-6.649-.293-.231,2.322a12.723,12.723,0,0,0-7.979-2.6h0a11.927,11.927,0,0,0-8.481,3.554,12.8,12.8,0,0,0-2.254,3.051,10.734,10.734,0,0,0-6.66-2.18h-.044a10.065,10.065,0,0,0-6.629,2.51,8.153,8.153,0,0,0-1.134-2.4,9.462,9.462,0,0,0-5.307-3.64,19.728,19.728,0,0,0-11.991.661,3.878,3.878,0,0,0-2.693,3.954l.006,3.329c.008,4.182.016,8.507,0,12.756a4.049,4.049,0,0,0,3.366,4.226c.465.091.933.193,1.429.3a30.953,30.953,0,0,0,3.916.679q1.035.092,2.012.093a16.353,16.353,0,0,0,6.648-1.314,8.3,8.3,0,0,0,3.345-2.538,10.27,10.27,0,0,0,1.574,1.195c-.659.164-1.327.352-2.007.572a3.938,3.938,0,0,0-2.782,3.975l-.041,3.539c-.052,4.469-.105,9.09-.182,13.63a4.121,4.121,0,0,0,3.366,4.336c.481.1.963.214,1.474.333a33.91,33.91,0,0,0,4.2.788,22.567,22.567,0,0,0,2.355.126,17.793,17.793,0,0,0,6.568-1.188,9.345,9.345,0,0,0,2.956-1.812,11.93,11.93,0,0,0,1.066.92,7.7,7.7,0,0,0,5.037,1.667l.093,1.094,3.584-.771c.4-.086.787-.172,1.168-.255.818-.181,1.591-.351,2.351-.5l.061-.012a5,5,0,0,0,2.228-.865,3.576,3.576,0,0,0,.46.18,22.456,22.456,0,0,0,6.606,1.225,12.9,12.9,0,0,0,3.849-.577,13.794,13.794,0,0,0,4.6-2.34l-.21,2.6,11.843.765,2.041-12.444,1.238.084.28,4.226a6.955,6.955,0,0,0-.576,3,6.764,6.764,0,0,0,6.81,6.658c.069,0,.139,0,.209,0a6.8,6.8,0,0,0,4.793-2.15,6.787,6.787,0,0,0,1.848-4.906A6.842,6.842,0,0,0-1246.431,137.4Zm-19.915-17.524q.073.089.15.175l-.173-.021Z" fill="#fff"/>
    <g id="Group_958" data-name="Group 958" transform="translate(-1340.146 94.139)">
      <g id="Group_957" data-name="Group 957" transform="translate(0)">
        <g id="Group_955" data-name="Group 955" transform="translate(17.284 22.147)">
          <path id="Path_7140" data-name="Path 7140" d="M-1250.976,216.115l.862.41a5.066,5.066,0,0,1,3.087,4.98,4.567,4.567,0,0,1-3.287,4.389,15.522,15.522,0,0,1-7.4.854,52.756,52.756,0,0,1-5.341-1.069c-.594-.125-.818-.469-.807-1.123.1-5.706.155-11.414.223-17.12.005-.435-.035-.819.55-1.009a17.753,17.753,0,0,1,10.76-.514c3.09.919,4.693,3.04,4.618,5.951A4.339,4.339,0,0,1-1250.976,216.115Zm-6.321,3.385h-.018c-.006.4-.039.806-.005,1.2.016.183.136.487.254.511.8.161,1.718.248,2.233-.456a2.785,2.785,0,0,0,.4-1.861c-.112-.83-1.37-1.373-2.36-1.15-.843.19-.358.91-.5,1.382A1.419,1.419,0,0,0-1257.3,219.5Zm.193-4.417a11.938,11.938,0,0,0,1.991-.522,1.607,1.607,0,0,0,.746-2.213,1.788,1.788,0,0,0-2.321-.753.692.692,0,0,0-.356.452C-1257.09,212.97-1257.086,213.9-1257.1,215.083Z" transform="translate(1263.862 -201.076)"/>
          <path id="Path_7141" data-name="Path 7141" d="M-1189.349,219.749l5.469-.788c.059,1.8.1,3.568.182,5.338.169,3.512.365,7.022.55,10.532.062,1.175.056,1.153-1.079,1.37-1.166.223-2.323.493-3.591.766-.047-.553-.094-1.1-.136-1.6a10.967,10.967,0,0,1-1.779.979,4.308,4.308,0,0,1-4.162-.776,7.359,7.359,0,0,1-2.9-4.542,36.232,36.232,0,0,1-.556-8.957c.022-.355.031-.632.51-.693,1.739-.223,3.473-.49,5.363-.762-.087.847-.147,1.451-.21,2.055a24.412,24.412,0,0,0,.012,7.106,6.523,6.523,0,0,0,.572,1.753.827.827,0,0,0,1.54.1,4.1,4.1,0,0,0,.693-1.855c.1-2.032.139-4.074.06-6.107A38.22,38.22,0,0,0-1189.349,219.749Z" transform="translate(1214.61 -211.205)"/>
          <path id="Path_7142" data-name="Path 7142" d="M-1135.863,216.441a12.157,12.157,0,0,0,7.12.628c.637-.155,1.258-.423,1.2-1.173-.068-.827-.819-.936-1.467-.964-.774-.033-1.552.044-2.328.075a5.407,5.407,0,0,1-5.936-5.518,7.79,7.79,0,0,1,6.339-7.859,16.516,16.516,0,0,1,6.463-.13c.738.14,1.106.393,1.08,1.247-.05,1.676.033,3.356.062,5.043-1.328-.072-2.581-.228-3.825-.179a9.49,9.49,0,0,0-2.724.565c-.346.122-.536.688-.8,1.052a5.478,5.478,0,0,0,1.166.647,2.469,2.469,0,0,0,1.144-.059c6.315-1.413,8.47,3.415,7.394,7.891-.73,3.036-2.985,4.521-5.817,5.4-2.959.915-5.756.206-8.555-.651a.816.816,0,0,1-.485-.57C-1135.873,220.106-1135.86,218.327-1135.863,216.441Z" transform="translate(1170.032 -198.069)"/>
          <path id="Path_7143" data-name="Path 7143" d="M-1069.947,219.555l-3.922-.481.762-6.209,14.625,1.795-.685,5.583-4.1-.278-2.043,12.453-5.649-.365C-1070.617,227.826-1070.281,223.673-1069.947,219.555Z" transform="translate(1123.027 -206.685)"/>
          <path id="Path_7144" data-name="Path 7144" d="M-1000.917,188.983c-.293,6.129-.581,12.153-.872,18.238l-6.367.192-1.2-18.176Z" transform="translate(1075.207 -188.983)"/>
          <path id="Path_7145" data-name="Path 7145" d="M-1002.817,267.042a3.607,3.607,0,0,1,3.713,3.517,3.6,3.6,0,0,1-3.508,3.724,3.562,3.562,0,0,1-3.7-3.521A3.571,3.571,0,0,1-1002.817,267.042Z" transform="translate(1072.95 -246.844)"/>
        </g>
        <g id="Group_956" data-name="Group 956">
          <path id="Path_7146" data-name="Path 7146" d="M-1112.984,136.711l-1.157-.1-4.912-.418.838-9.843-.17-.053c-.3.674-.6,1.345-.89,2.022-.71,1.655-1.443,3.3-2.1,4.974a.978.978,0,0,1-1.218.751c-1.812-.243-1.386.158-1.757-1.6-.408-1.927-.754-3.866-1.3-5.82-.039.284-.09.567-.115.852-.194,2.23-.4,4.46-.56,6.693-.046.644-.271.85-.917.783-1.757-.183-3.519-.311-5.371-.469q.91-9.137,1.846-18.537l6.918.305,2.024,9.228c.256-.46.411-.709.539-.972,1.237-2.531,2.486-5.056,3.691-7.6a.946.946,0,0,1,1.133-.632c2.1.219,4.212.374,6.433.563Z" transform="translate(1183.86 -112.701)"/>
          <path id="Path_7147" data-name="Path 7147" d="M-1318.734,125.389c.455.2.746.31,1.02.451a4.794,4.794,0,0,1,2.776,4.654,4.226,4.226,0,0,1-2.868,3.988,14.28,14.28,0,0,1-7.081.965,49.567,49.567,0,0,1-5.015-.934c-.572-.112-.758-.441-.756-1.046.02-5.347,0-10.694-.006-16.041,0-.406-.047-.767.5-.952a16.61,16.61,0,0,1,10.073-.613c3.154.9,4.83,3.363,4.344,6.217A4.071,4.071,0,0,1-1318.734,125.389Zm-5.825,3.27h-.018c0,.376-.025.755.011,1.127.017.171.178.48.237.471a4.914,4.914,0,0,0,2.021-.445,2.027,2.027,0,0,0,.459-1.609c-.086-.865-1.125-1.373-2.2-1.207-.895.138-.366.865-.508,1.316A1.2,1.2,0,0,0-1324.56,128.659Zm.086-4.053a12.178,12.178,0,0,0,2.189-.855,1.416,1.416,0,0,0,.247-2.011,1.73,1.73,0,0,0-2.171-.474.6.6,0,0,0-.253.4C-1324.486,122.555-1324.474,123.441-1324.474,124.606Z" transform="translate(1330.666 -112.242)"/>
          <path id="Path_7148" data-name="Path 7148" d="M-1185.132,123.557c0,5.433-3.953,9.653-9.058,9.66a9.169,9.169,0,0,1-9.184-9.23,9.312,9.312,0,0,1,9.032-9.611C-1188.784,114.378-1185.136,118.015-1185.132,123.557Zm-12.054.239a3.346,3.346,0,0,0,2,3.334c2.13.677,4.1-1.329,3.714-3.778a2.89,2.89,0,0,0-2.969-2.7A2.993,2.993,0,0,0-1197.187,123.8Z" transform="translate(1236.309 -111.533)"/>
          <path id="Path_7149" data-name="Path 7149" d="M-1249.1,138.805a7.268,7.268,0,0,1-7.211,7.587,7.207,7.207,0,0,1-7.235-7.32,7.42,7.42,0,0,1,7.19-7.593A6.884,6.884,0,0,1-1249.1,138.805Zm-9.545.173a2.728,2.728,0,0,0,1.329,2.517,2.007,2.007,0,0,0,2.258-.273,2.665,2.665,0,0,0,.911-2.7,2.221,2.221,0,0,0-2.344-2.041A2.346,2.346,0,0,0-1258.644,138.979Z" transform="translate(1280.911 -124.21)"/>
          <path id="Path_7150" data-name="Path 7150" d="M-1030.951,103.386c-.434,5.566-.861,11.036-1.292,16.561h-5.8c-.2-5.483-.4-10.983-.6-16.561Z" transform="translate(1114.193 -103.386)"/>
          <path id="Path_7151" data-name="Path 7151" d="M-1035.084,173.935a3.282,3.282,0,0,1,3.28,3.3,3.276,3.276,0,0,1-3.292,3.29,3.24,3.24,0,0,1-3.268-3.3A3.248,3.248,0,0,1-1035.084,173.935Z" transform="translate(1113.992 -155.682)"/>
        </g>
      </g>
      <path id="Path_7152" data-name="Path 7152" d="M-1178.957,195.649l.911,2.174-2.215.181c-.133-.559-.265-1.107-.4-1.656s-.131-.553-.762-.543l-.322,2-2.026-.23c.072-.635.134-1.26.215-1.881.2-1.49.4-2.979.6-4.469a.352.352,0,0,1,.34-.36,6.5,6.5,0,0,1,3.533.241,2.44,2.44,0,0,1,.783,4.087A7.52,7.52,0,0,1-1178.957,195.649Zm-2.227-1.385a1.423,1.423,0,0,0,1.086-.146.952.952,0,0,0,.319-1.15.9.9,0,0,0-.948-.525.272.272,0,0,0-.183.163C-1181.01,193.151-1181.093,193.7-1181.184,194.264Z" transform="translate(1221.773 -168.131)"/>
      <path id="Path_7153" data-name="Path 7153" d="M-1204.922,195.738a3.1,3.1,0,0,1-2.75-3.48,3.2,3.2,0,0,1,3.442-2.911,2.981,2.981,0,0,1,2.766,3.485A3.148,3.148,0,0,1-1204.922,195.738Zm1.348-3.009a1.255,1.255,0,0,0-.547-1.139.985.985,0,0,0-1.064.113,1.29,1.29,0,0,0-.268,1.5.9.9,0,0,0,1.513.2A3.678,3.678,0,0,0-1203.573,192.729Z" transform="translate(1239.51 -167.091)"/>
    </g>
  </g>
</svg>
